<mxfile host="app.diagrams.net" modified="2020-08-19T08:53:41.334Z" agent="5.0 (Macintosh; Intel Mac OS X 10_15_6) AppleWebKit/537.36 (KHTML, like Gecko) Chrome/84.0.4147.105 Safari/537.36" etag="ML6bX72lJbul-FD5IDAU" version="13.6.2" type="github">
  <diagram id="ZgDjedd4TL9Jpz91tsV2" name="Page-1">
    <mxGraphModel dx="1261" dy="712" grid="1" gridSize="10" guides="1" tooltips="1" connect="1" arrows="1" fold="1" page="1" pageScale="1" pageWidth="827" pageHeight="1169" math="0" shadow="0">
      <root>
        <mxCell id="0" />
        <mxCell id="1" parent="0" />
        <mxCell id="LFFz9vKa-X7kDYE8o5A4-5" value="" style="edgeStyle=orthogonalEdgeStyle;rounded=0;orthogonalLoop=1;jettySize=auto;html=1;" edge="1" parent="1" source="LFFz9vKa-X7kDYE8o5A4-7" target="LFFz9vKa-X7kDYE8o5A4-9">
          <mxGeometry relative="1" as="geometry" />
        </mxCell>
        <mxCell id="LFFz9vKa-X7kDYE8o5A4-6" value="" style="edgeStyle=orthogonalEdgeStyle;rounded=0;orthogonalLoop=1;jettySize=auto;html=1;" edge="1" parent="1" source="LFFz9vKa-X7kDYE8o5A4-7" target="LFFz9vKa-X7kDYE8o5A4-11">
          <mxGeometry relative="1" as="geometry" />
        </mxCell>
        <mxCell id="LFFz9vKa-X7kDYE8o5A4-7" value="start()" style="rounded=1;whiteSpace=wrap;html=1;" vertex="1" parent="1">
          <mxGeometry x="280" y="310" width="110" height="60" as="geometry" />
        </mxCell>
        <mxCell id="LFFz9vKa-X7kDYE8o5A4-8" value="" style="edgeStyle=orthogonalEdgeStyle;rounded=0;orthogonalLoop=1;jettySize=auto;html=1;" edge="1" parent="1" source="LFFz9vKa-X7kDYE8o5A4-9" target="LFFz9vKa-X7kDYE8o5A4-24">
          <mxGeometry relative="1" as="geometry" />
        </mxCell>
        <mxCell id="LFFz9vKa-X7kDYE8o5A4-9" value="run()" style="rounded=1;whiteSpace=wrap;html=1;" vertex="1" parent="1">
          <mxGeometry x="280" y="410" width="110" height="60" as="geometry" />
        </mxCell>
        <mxCell id="LFFz9vKa-X7kDYE8o5A4-90" value="" style="edgeStyle=orthogonalEdgeStyle;rounded=0;orthogonalLoop=1;jettySize=auto;html=1;" edge="1" parent="1" source="LFFz9vKa-X7kDYE8o5A4-11" target="LFFz9vKa-X7kDYE8o5A4-89">
          <mxGeometry relative="1" as="geometry" />
        </mxCell>
        <mxCell id="LFFz9vKa-X7kDYE8o5A4-97" value="" style="edgeStyle=orthogonalEdgeStyle;rounded=0;orthogonalLoop=1;jettySize=auto;html=1;" edge="1" parent="1" source="LFFz9vKa-X7kDYE8o5A4-11" target="LFFz9vKa-X7kDYE8o5A4-96">
          <mxGeometry relative="1" as="geometry" />
        </mxCell>
        <mxCell id="LFFz9vKa-X7kDYE8o5A4-11" value="read_thread()" style="rounded=1;whiteSpace=wrap;html=1;" vertex="1" parent="1">
          <mxGeometry x="468" y="310" width="122" height="60" as="geometry" />
        </mxCell>
        <mxCell id="LFFz9vKa-X7kDYE8o5A4-23" value="" style="edgeStyle=orthogonalEdgeStyle;rounded=0;orthogonalLoop=1;jettySize=auto;html=1;" edge="1" parent="1" source="LFFz9vKa-X7kDYE8o5A4-24" target="LFFz9vKa-X7kDYE8o5A4-79">
          <mxGeometry relative="1" as="geometry" />
        </mxCell>
        <mxCell id="LFFz9vKa-X7kDYE8o5A4-24" value="read_one_record():&lt;br&gt;&lt;br&gt;pop_record" style="rounded=1;whiteSpace=wrap;html=1;" vertex="1" parent="1">
          <mxGeometry x="280" y="508" width="110" height="162" as="geometry" />
        </mxCell>
        <mxCell id="LFFz9vKa-X7kDYE8o5A4-65" value="" style="edgeStyle=orthogonalEdgeStyle;rounded=0;orthogonalLoop=1;jettySize=auto;html=1;" edge="1" parent="1" source="LFFz9vKa-X7kDYE8o5A4-66" target="LFFz9vKa-X7kDYE8o5A4-69">
          <mxGeometry relative="1" as="geometry" />
        </mxCell>
        <mxCell id="LFFz9vKa-X7kDYE8o5A4-66" value="停止插件中工作线程&lt;br&gt;stop()&lt;br&gt;close()" style="rounded=1;whiteSpace=wrap;html=1;" vertex="1" parent="1">
          <mxGeometry x="275" y="995" width="120" height="60" as="geometry" />
        </mxCell>
        <mxCell id="LFFz9vKa-X7kDYE8o5A4-69" value="&lt;span&gt;disconnect():&lt;br&gt;&lt;/span&gt;" style="whiteSpace=wrap;html=1;rounded=1;" vertex="1" parent="1">
          <mxGeometry x="275" y="1095" width="120" height="45" as="geometry" />
        </mxCell>
        <mxCell id="LFFz9vKa-X7kDYE8o5A4-73" value="子线程结束" style="rounded=1;whiteSpace=wrap;html=1;" vertex="1" parent="1">
          <mxGeometry x="469" y="540" width="120" height="60" as="geometry" />
        </mxCell>
        <mxCell id="LFFz9vKa-X7kDYE8o5A4-74" value="" style="edgeStyle=orthogonalEdgeStyle;rounded=0;orthogonalLoop=1;jettySize=auto;html=1;" edge="1" parent="1" source="LFFz9vKa-X7kDYE8o5A4-76" target="LFFz9vKa-X7kDYE8o5A4-66">
          <mxGeometry relative="1" as="geometry" />
        </mxCell>
        <mxCell id="LFFz9vKa-X7kDYE8o5A4-75" value="死" style="edgeLabel;html=1;align=center;verticalAlign=middle;resizable=0;points=[];" vertex="1" connectable="0" parent="LFFz9vKa-X7kDYE8o5A4-74">
          <mxGeometry x="-0.0204" relative="1" as="geometry">
            <mxPoint as="offset" />
          </mxGeometry>
        </mxCell>
        <mxCell id="LFFz9vKa-X7kDYE8o5A4-76" value="_read_pthread&lt;br&gt;探活?" style="rhombus;whiteSpace=wrap;html=1;rounded=1;" vertex="1" parent="1">
          <mxGeometry x="281.5" y="856" width="107" height="90" as="geometry" />
        </mxCell>
        <mxCell id="LFFz9vKa-X7kDYE8o5A4-77" value="" style="edgeStyle=orthogonalEdgeStyle;rounded=0;orthogonalLoop=1;jettySize=auto;html=1;" edge="1" parent="1" source="LFFz9vKa-X7kDYE8o5A4-79" target="LFFz9vKa-X7kDYE8o5A4-76">
          <mxGeometry relative="1" as="geometry" />
        </mxCell>
        <mxCell id="LFFz9vKa-X7kDYE8o5A4-78" value="是" style="edgeLabel;html=1;align=center;verticalAlign=middle;resizable=0;points=[];" vertex="1" connectable="0" parent="LFFz9vKa-X7kDYE8o5A4-77">
          <mxGeometry x="-0.125" y="-1" relative="1" as="geometry">
            <mxPoint as="offset" />
          </mxGeometry>
        </mxCell>
        <mxCell id="LFFz9vKa-X7kDYE8o5A4-79" value="_queue_record&lt;br&gt;== 0?" style="rhombus;whiteSpace=wrap;html=1;rounded=1;" vertex="1" parent="1">
          <mxGeometry x="281.5" y="715" width="107" height="90" as="geometry" />
        </mxCell>
        <mxCell id="LFFz9vKa-X7kDYE8o5A4-80" value="" style="endArrow=none;html=1;exitX=1;exitY=0.5;exitDx=0;exitDy=0;" edge="1" parent="1" source="LFFz9vKa-X7kDYE8o5A4-79">
          <mxGeometry width="50" height="50" relative="1" as="geometry">
            <mxPoint x="490" y="810" as="sourcePoint" />
            <mxPoint x="440" y="760" as="targetPoint" />
          </mxGeometry>
        </mxCell>
        <mxCell id="LFFz9vKa-X7kDYE8o5A4-81" value="否" style="edgeLabel;html=1;align=center;verticalAlign=middle;resizable=0;points=[];" vertex="1" connectable="0" parent="LFFz9vKa-X7kDYE8o5A4-80">
          <mxGeometry x="0.1845" y="1" relative="1" as="geometry">
            <mxPoint y="1" as="offset" />
          </mxGeometry>
        </mxCell>
        <mxCell id="LFFz9vKa-X7kDYE8o5A4-82" value="" style="endArrow=none;html=1;" edge="1" parent="1">
          <mxGeometry width="50" height="50" relative="1" as="geometry">
            <mxPoint x="440" y="760" as="sourcePoint" />
            <mxPoint x="440" y="660" as="targetPoint" />
          </mxGeometry>
        </mxCell>
        <mxCell id="LFFz9vKa-X7kDYE8o5A4-84" value="" style="endArrow=none;html=1;exitX=0.967;exitY=0.493;exitDx=0;exitDy=0;exitPerimeter=0;" edge="1" parent="1" source="LFFz9vKa-X7kDYE8o5A4-76">
          <mxGeometry width="50" height="50" relative="1" as="geometry">
            <mxPoint x="390" y="921" as="sourcePoint" />
            <mxPoint x="460" y="900" as="targetPoint" />
          </mxGeometry>
        </mxCell>
        <mxCell id="LFFz9vKa-X7kDYE8o5A4-85" value="活" style="edgeLabel;html=1;align=center;verticalAlign=middle;resizable=0;points=[];" vertex="1" connectable="0" parent="LFFz9vKa-X7kDYE8o5A4-84">
          <mxGeometry x="-0.1233" y="-2" relative="1" as="geometry">
            <mxPoint as="offset" />
          </mxGeometry>
        </mxCell>
        <mxCell id="LFFz9vKa-X7kDYE8o5A4-86" value="" style="endArrow=none;html=1;" edge="1" parent="1">
          <mxGeometry width="50" height="50" relative="1" as="geometry">
            <mxPoint x="460" y="900" as="sourcePoint" />
            <mxPoint x="460" y="640" as="targetPoint" />
          </mxGeometry>
        </mxCell>
        <mxCell id="LFFz9vKa-X7kDYE8o5A4-87" value="" style="endArrow=classic;html=1;entryX=1.009;entryY=0.815;entryDx=0;entryDy=0;entryPerimeter=0;" edge="1" parent="1" target="LFFz9vKa-X7kDYE8o5A4-24">
          <mxGeometry width="50" height="50" relative="1" as="geometry">
            <mxPoint x="460" y="640" as="sourcePoint" />
            <mxPoint x="560" y="850" as="targetPoint" />
          </mxGeometry>
        </mxCell>
        <mxCell id="LFFz9vKa-X7kDYE8o5A4-88" style="edgeStyle=orthogonalEdgeStyle;rounded=0;orthogonalLoop=1;jettySize=auto;html=1;exitX=0.5;exitY=1;exitDx=0;exitDy=0;" edge="1" parent="1" source="LFFz9vKa-X7kDYE8o5A4-69" target="LFFz9vKa-X7kDYE8o5A4-69">
          <mxGeometry relative="1" as="geometry" />
        </mxCell>
        <mxCell id="LFFz9vKa-X7kDYE8o5A4-91" style="edgeStyle=orthogonalEdgeStyle;rounded=0;orthogonalLoop=1;jettySize=auto;html=1;exitX=1;exitY=0.5;exitDx=0;exitDy=0;entryX=1;entryY=0.75;entryDx=0;entryDy=0;" edge="1" parent="1" source="LFFz9vKa-X7kDYE8o5A4-89" target="LFFz9vKa-X7kDYE8o5A4-11">
          <mxGeometry relative="1" as="geometry" />
        </mxCell>
        <mxCell id="LFFz9vKa-X7kDYE8o5A4-92" value="false" style="edgeLabel;html=1;align=center;verticalAlign=middle;resizable=0;points=[];" vertex="1" connectable="0" parent="LFFz9vKa-X7kDYE8o5A4-91">
          <mxGeometry x="0.1206" y="-2" relative="1" as="geometry">
            <mxPoint x="1" as="offset" />
          </mxGeometry>
        </mxCell>
        <mxCell id="LFFz9vKa-X7kDYE8o5A4-94" value="" style="edgeStyle=orthogonalEdgeStyle;rounded=0;orthogonalLoop=1;jettySize=auto;html=1;" edge="1" parent="1" source="LFFz9vKa-X7kDYE8o5A4-89" target="LFFz9vKa-X7kDYE8o5A4-73">
          <mxGeometry relative="1" as="geometry" />
        </mxCell>
        <mxCell id="LFFz9vKa-X7kDYE8o5A4-95" value="true" style="edgeLabel;html=1;align=center;verticalAlign=middle;resizable=0;points=[];" vertex="1" connectable="0" parent="LFFz9vKa-X7kDYE8o5A4-94">
          <mxGeometry x="-0.1333" y="2" relative="1" as="geometry">
            <mxPoint as="offset" />
          </mxGeometry>
        </mxCell>
        <mxCell id="LFFz9vKa-X7kDYE8o5A4-89" value="_is_quiting?" style="rhombus;whiteSpace=wrap;html=1;rounded=1;" vertex="1" parent="1">
          <mxGeometry x="479.5" y="410" width="99" height="90" as="geometry" />
        </mxCell>
        <mxCell id="LFFz9vKa-X7kDYE8o5A4-127" value="" style="edgeStyle=orthogonalEdgeStyle;rounded=0;orthogonalLoop=1;jettySize=auto;html=1;" edge="1" parent="1" source="LFFz9vKa-X7kDYE8o5A4-96" target="LFFz9vKa-X7kDYE8o5A4-126">
          <mxGeometry relative="1" as="geometry" />
        </mxCell>
        <mxCell id="LFFz9vKa-X7kDYE8o5A4-96" value="_parallel 个线程&lt;br&gt;worker()" style="rounded=1;whiteSpace=wrap;html=1;" vertex="1" parent="1">
          <mxGeometry x="688" y="310" width="122" height="60" as="geometry" />
        </mxCell>
        <mxCell id="LFFz9vKa-X7kDYE8o5A4-105" style="edgeStyle=orthogonalEdgeStyle;rounded=0;orthogonalLoop=1;jettySize=auto;html=1;exitX=1;exitY=0.5;exitDx=0;exitDy=0;entryX=1;entryY=0.5;entryDx=0;entryDy=0;" edge="1" parent="1" source="LFFz9vKa-X7kDYE8o5A4-104" target="LFFz9vKa-X7kDYE8o5A4-96">
          <mxGeometry relative="1" as="geometry" />
        </mxCell>
        <mxCell id="LFFz9vKa-X7kDYE8o5A4-106" value="是" style="edgeLabel;html=1;align=center;verticalAlign=middle;resizable=0;points=[];" vertex="1" connectable="0" parent="LFFz9vKa-X7kDYE8o5A4-105">
          <mxGeometry x="-0.0523" y="-1" relative="1" as="geometry">
            <mxPoint x="1" as="offset" />
          </mxGeometry>
        </mxCell>
        <mxCell id="LFFz9vKa-X7kDYE8o5A4-150" style="edgeStyle=orthogonalEdgeStyle;rounded=0;orthogonalLoop=1;jettySize=auto;html=1;exitX=0.5;exitY=1;exitDx=0;exitDy=0;entryX=0.5;entryY=0;entryDx=0;entryDy=0;" edge="1" parent="1" source="LFFz9vKa-X7kDYE8o5A4-104" target="LFFz9vKa-X7kDYE8o5A4-149">
          <mxGeometry relative="1" as="geometry" />
        </mxCell>
        <mxCell id="LFFz9vKa-X7kDYE8o5A4-104" value="_task_list&lt;br&gt;为空?" style="rhombus;whiteSpace=wrap;html=1;rounded=1;" vertex="1" parent="1">
          <mxGeometry x="781" y="540" width="99" height="90" as="geometry" />
        </mxCell>
        <mxCell id="LFFz9vKa-X7kDYE8o5A4-119" value="" style="edgeStyle=orthogonalEdgeStyle;rounded=0;orthogonalLoop=1;jettySize=auto;html=1;" edge="1" parent="1" source="LFFz9vKa-X7kDYE8o5A4-107" target="LFFz9vKa-X7kDYE8o5A4-118">
          <mxGeometry relative="1" as="geometry" />
        </mxCell>
        <mxCell id="LFFz9vKa-X7kDYE8o5A4-107" value="&lt;p class=&quot;p1&quot; style=&quot;margin: 0px ; font-stretch: normal ; font-size: 13px ; line-height: normal ; font-family: &amp;#34;pingfang sc&amp;#34;&quot;&gt;&lt;span&gt;create_change_table_query():&lt;/span&gt;&lt;br&gt;&lt;/p&gt;&lt;p class=&quot;p1&quot; style=&quot;margin: 0px ; font-stretch: normal ; font-size: 13px ; line-height: normal ; font-family: &amp;#34;pingfang sc&amp;#34;&quot;&gt;拼接查询变更表 sql&lt;/p&gt;&lt;p class=&quot;p1&quot; style=&quot;margin: 0px ; font-stretch: normal ; font-size: 13px ; line-height: normal ; font-family: &amp;#34;pingfang sc&amp;#34;&quot;&gt;exec_change_table_query():&lt;br&gt;&lt;/p&gt;&lt;p class=&quot;p1&quot; style=&quot;margin: 0px ; font-stretch: normal ; font-size: 13px ; line-height: normal ; font-family: &amp;#34;pingfang sc&amp;#34;&quot;&gt;执行sql&lt;/p&gt;&lt;p class=&quot;p1&quot; style=&quot;margin: 0px ; font-stretch: normal ; font-size: 13px ; line-height: normal ; font-family: &amp;#34;pingfang sc&amp;#34;&quot;&gt;get_change_table_query_result():&lt;/p&gt;&lt;p class=&quot;p1&quot; style=&quot;margin: 0px ; font-stretch: normal ; font-size: 13px ; line-height: normal ; font-family: &amp;#34;pingfang sc&amp;#34;&quot;&gt;获取结果集&lt;/p&gt;" style="whiteSpace=wrap;html=1;rounded=1;" vertex="1" parent="1">
          <mxGeometry x="638.25" y="740" width="221.5" height="150" as="geometry" />
        </mxCell>
        <mxCell id="LFFz9vKa-X7kDYE8o5A4-158" value="" style="edgeStyle=orthogonalEdgeStyle;rounded=0;orthogonalLoop=1;jettySize=auto;html=1;" edge="1" parent="1" source="LFFz9vKa-X7kDYE8o5A4-114" target="LFFz9vKa-X7kDYE8o5A4-154">
          <mxGeometry relative="1" as="geometry" />
        </mxCell>
        <mxCell id="LFFz9vKa-X7kDYE8o5A4-114" value="&lt;p class=&quot;p1&quot; style=&quot;margin: 0px ; font-stretch: normal ; font-size: 13px ; line-height: normal ; font-family: &amp;#34;pingfang sc&amp;#34;&quot;&gt;make_databus_record()&lt;/p&gt;" style="rounded=1;whiteSpace=wrap;html=1;" vertex="1" parent="1">
          <mxGeometry x="663.5" y="920" width="171" height="60" as="geometry" />
        </mxCell>
        <mxCell id="LFFz9vKa-X7kDYE8o5A4-117" value="" style="endArrow=classic;html=1;entryX=1;entryY=0.938;entryDx=0;entryDy=0;entryPerimeter=0;" edge="1" parent="1" target="LFFz9vKa-X7kDYE8o5A4-24">
          <mxGeometry width="50" height="50" relative="1" as="geometry">
            <mxPoint x="440" y="660" as="sourcePoint" />
            <mxPoint x="440" y="670" as="targetPoint" />
          </mxGeometry>
        </mxCell>
        <mxCell id="LFFz9vKa-X7kDYE8o5A4-134" style="edgeStyle=orthogonalEdgeStyle;rounded=0;orthogonalLoop=1;jettySize=auto;html=1;exitX=0.5;exitY=1;exitDx=0;exitDy=0;entryX=1;entryY=0.5;entryDx=0;entryDy=0;" edge="1" parent="1" source="LFFz9vKa-X7kDYE8o5A4-118" target="LFFz9vKa-X7kDYE8o5A4-114">
          <mxGeometry relative="1" as="geometry" />
        </mxCell>
        <mxCell id="LFFz9vKa-X7kDYE8o5A4-135" value="是" style="edgeLabel;html=1;align=center;verticalAlign=middle;resizable=0;points=[];" vertex="1" connectable="0" parent="LFFz9vKa-X7kDYE8o5A4-134">
          <mxGeometry x="-0.7545" y="1" relative="1" as="geometry">
            <mxPoint as="offset" />
          </mxGeometry>
        </mxCell>
        <mxCell id="LFFz9vKa-X7kDYE8o5A4-137" style="edgeStyle=orthogonalEdgeStyle;rounded=0;orthogonalLoop=1;jettySize=auto;html=1;exitX=0.5;exitY=0;exitDx=0;exitDy=0;entryX=1;entryY=0.25;entryDx=0;entryDy=0;" edge="1" parent="1" source="LFFz9vKa-X7kDYE8o5A4-118" target="LFFz9vKa-X7kDYE8o5A4-96">
          <mxGeometry relative="1" as="geometry" />
        </mxCell>
        <mxCell id="LFFz9vKa-X7kDYE8o5A4-138" value="否" style="edgeLabel;html=1;align=center;verticalAlign=middle;resizable=0;points=[];" vertex="1" connectable="0" parent="LFFz9vKa-X7kDYE8o5A4-137">
          <mxGeometry x="-0.6297" y="-2" relative="1" as="geometry">
            <mxPoint as="offset" />
          </mxGeometry>
        </mxCell>
        <mxCell id="LFFz9vKa-X7kDYE8o5A4-118" value="执行成功?" style="rhombus;whiteSpace=wrap;html=1;rounded=1;" vertex="1" parent="1">
          <mxGeometry x="880" y="770" width="99" height="90" as="geometry" />
        </mxCell>
        <mxCell id="LFFz9vKa-X7kDYE8o5A4-128" style="edgeStyle=orthogonalEdgeStyle;rounded=0;orthogonalLoop=1;jettySize=auto;html=1;exitX=0;exitY=0.5;exitDx=0;exitDy=0;entryX=1;entryY=0.5;entryDx=0;entryDy=0;" edge="1" parent="1" source="LFFz9vKa-X7kDYE8o5A4-126" target="LFFz9vKa-X7kDYE8o5A4-73">
          <mxGeometry relative="1" as="geometry" />
        </mxCell>
        <mxCell id="LFFz9vKa-X7kDYE8o5A4-129" value="true" style="edgeLabel;html=1;align=center;verticalAlign=middle;resizable=0;points=[];" vertex="1" connectable="0" parent="LFFz9vKa-X7kDYE8o5A4-128">
          <mxGeometry x="-0.6595" relative="1" as="geometry">
            <mxPoint as="offset" />
          </mxGeometry>
        </mxCell>
        <mxCell id="LFFz9vKa-X7kDYE8o5A4-140" style="edgeStyle=orthogonalEdgeStyle;rounded=0;orthogonalLoop=1;jettySize=auto;html=1;exitX=0.5;exitY=1;exitDx=0;exitDy=0;entryX=0.5;entryY=0;entryDx=0;entryDy=0;" edge="1" parent="1" source="LFFz9vKa-X7kDYE8o5A4-126" target="LFFz9vKa-X7kDYE8o5A4-139">
          <mxGeometry relative="1" as="geometry" />
        </mxCell>
        <mxCell id="LFFz9vKa-X7kDYE8o5A4-141" value="false" style="edgeLabel;html=1;align=center;verticalAlign=middle;resizable=0;points=[];" vertex="1" connectable="0" parent="LFFz9vKa-X7kDYE8o5A4-140">
          <mxGeometry x="-0.5532" y="-13" relative="1" as="geometry">
            <mxPoint x="-13" y="13" as="offset" />
          </mxGeometry>
        </mxCell>
        <mxCell id="LFFz9vKa-X7kDYE8o5A4-126" value="_is_quiting?" style="rhombus;whiteSpace=wrap;html=1;rounded=1;" vertex="1" parent="1">
          <mxGeometry x="699.5" y="410" width="99" height="90" as="geometry" />
        </mxCell>
        <mxCell id="LFFz9vKa-X7kDYE8o5A4-160" style="edgeStyle=orthogonalEdgeStyle;rounded=0;orthogonalLoop=1;jettySize=auto;html=1;exitX=1;exitY=0.5;exitDx=0;exitDy=0;entryX=1;entryY=0;entryDx=0;entryDy=0;" edge="1" parent="1" source="LFFz9vKa-X7kDYE8o5A4-136" target="LFFz9vKa-X7kDYE8o5A4-96">
          <mxGeometry relative="1" as="geometry" />
        </mxCell>
        <mxCell id="LFFz9vKa-X7kDYE8o5A4-136" value="当前表重新放入&lt;br&gt;_task_list" style="rounded=1;whiteSpace=wrap;html=1;" vertex="1" parent="1">
          <mxGeometry x="868.5" y="1010" width="122" height="60" as="geometry" />
        </mxCell>
        <mxCell id="LFFz9vKa-X7kDYE8o5A4-142" style="edgeStyle=orthogonalEdgeStyle;rounded=0;orthogonalLoop=1;jettySize=auto;html=1;exitX=1;exitY=0.5;exitDx=0;exitDy=0;entryX=0;entryY=0.5;entryDx=0;entryDy=0;" edge="1" parent="1" source="LFFz9vKa-X7kDYE8o5A4-139" target="LFFz9vKa-X7kDYE8o5A4-104">
          <mxGeometry relative="1" as="geometry" />
        </mxCell>
        <mxCell id="LFFz9vKa-X7kDYE8o5A4-143" value="是" style="edgeLabel;html=1;align=center;verticalAlign=middle;resizable=0;points=[];" vertex="1" connectable="0" parent="LFFz9vKa-X7kDYE8o5A4-142">
          <mxGeometry x="-0.1691" y="2" relative="1" as="geometry">
            <mxPoint as="offset" />
          </mxGeometry>
        </mxCell>
        <mxCell id="LFFz9vKa-X7kDYE8o5A4-145" value="" style="edgeStyle=orthogonalEdgeStyle;rounded=0;orthogonalLoop=1;jettySize=auto;html=1;" edge="1" parent="1" source="LFFz9vKa-X7kDYE8o5A4-139" target="LFFz9vKa-X7kDYE8o5A4-107">
          <mxGeometry relative="1" as="geometry" />
        </mxCell>
        <mxCell id="LFFz9vKa-X7kDYE8o5A4-146" value="否" style="edgeLabel;html=1;align=center;verticalAlign=middle;resizable=0;points=[];" vertex="1" connectable="0" parent="LFFz9vKa-X7kDYE8o5A4-145">
          <mxGeometry x="-0.2007" relative="1" as="geometry">
            <mxPoint as="offset" />
          </mxGeometry>
        </mxCell>
        <mxCell id="LFFz9vKa-X7kDYE8o5A4-139" value="当前 task (表)&lt;br&gt;为空?" style="rhombus;whiteSpace=wrap;html=1;rounded=1;" vertex="1" parent="1">
          <mxGeometry x="650" y="540" width="99" height="90" as="geometry" />
        </mxCell>
        <mxCell id="LFFz9vKa-X7kDYE8o5A4-152" style="edgeStyle=orthogonalEdgeStyle;rounded=0;orthogonalLoop=1;jettySize=auto;html=1;exitX=0.5;exitY=1;exitDx=0;exitDy=0;entryX=0.868;entryY=0.002;entryDx=0;entryDy=0;entryPerimeter=0;" edge="1" parent="1" source="LFFz9vKa-X7kDYE8o5A4-149" target="LFFz9vKa-X7kDYE8o5A4-107">
          <mxGeometry relative="1" as="geometry" />
        </mxCell>
        <mxCell id="LFFz9vKa-X7kDYE8o5A4-149" value="取出一张表" style="rounded=1;whiteSpace=wrap;html=1;" vertex="1" parent="1">
          <mxGeometry x="769.5" y="650" width="122" height="60" as="geometry" />
        </mxCell>
        <mxCell id="LFFz9vKa-X7kDYE8o5A4-156" style="edgeStyle=orthogonalEdgeStyle;rounded=0;orthogonalLoop=1;jettySize=auto;html=1;exitX=0;exitY=0.5;exitDx=0;exitDy=0;entryX=0.994;entryY=0.664;entryDx=0;entryDy=0;entryPerimeter=0;" edge="1" parent="1" source="LFFz9vKa-X7kDYE8o5A4-154" target="LFFz9vKa-X7kDYE8o5A4-24">
          <mxGeometry relative="1" as="geometry" />
        </mxCell>
        <mxCell id="LFFz9vKa-X7kDYE8o5A4-157" value="record" style="edgeLabel;html=1;align=center;verticalAlign=middle;resizable=0;points=[];" vertex="1" connectable="0" parent="LFFz9vKa-X7kDYE8o5A4-156">
          <mxGeometry x="-0.2685" y="3" relative="1" as="geometry">
            <mxPoint as="offset" />
          </mxGeometry>
        </mxCell>
        <mxCell id="LFFz9vKa-X7kDYE8o5A4-159" value="" style="edgeStyle=orthogonalEdgeStyle;rounded=0;orthogonalLoop=1;jettySize=auto;html=1;" edge="1" parent="1" source="LFFz9vKa-X7kDYE8o5A4-154" target="LFFz9vKa-X7kDYE8o5A4-136">
          <mxGeometry relative="1" as="geometry" />
        </mxCell>
        <mxCell id="LFFz9vKa-X7kDYE8o5A4-154" value="&lt;span&gt;record_queue_push()&lt;/span&gt;" style="whiteSpace=wrap;html=1;rounded=1;" vertex="1" parent="1">
          <mxGeometry x="679" y="1010" width="140" height="60" as="geometry" />
        </mxCell>
      </root>
    </mxGraphModel>
  </diagram>
</mxfile>
